<svg xmlns="http://www.w3.org/2000/svg" xmlns:xlink="http://www.w3.org/1999/xlink" width="500" zoomAndPan="magnify" viewBox="0 0 375 374.999991" height="500" preserveAspectRatio="xMidYMid meet" version="1.0"><defs><clipPath id="35664d9917"><path d="M 146 1.5 L 226 1.5 L 226 262.5 L 146 262.5 Z M 146 1.5 " clip-rule="nonzero"/></clipPath><clipPath id="f211654ff8"><path d="M 133.523438 266.703125 L 238.523438 266.703125 L 238.523438 371.703125 L 133.523438 371.703125 Z M 133.523438 266.703125 " clip-rule="nonzero"/></clipPath></defs><g clip-path="url(#35664d9917)"><path fill="#fe074c" d="M 220.628906 300.070312 C 220.628906 304.238281 219.039062 308.40625 215.859375 311.585938 L 209.03125 318.410156 L 191.460938 335.980469 C 188.445312 339 183.554688 339 180.539062 335.980469 L 162.964844 318.410156 L 156.140625 311.585938 C 149.777344 305.222656 149.777344 294.910156 156.140625 288.550781 C 159.320312 285.375 163.488281 283.78125 167.65625 283.78125 C 171.824219 283.78125 175.992188 285.375 179.171875 288.550781 L 183.128906 292.507812 C 184.714844 294.09375 187.285156 294.09375 188.871094 292.507812 L 192.824219 288.550781 C 199.1875 282.191406 209.5 282.191406 215.859375 288.550781 C 219.039062 291.730469 220.628906 295.902344 220.628906 300.070312 Z M 206.785156 240.421875 L 225.195312 20.792969 C 226.066406 10.371094 216.511719 1.5 204.40625 1.5 L 167.59375 1.5 C 155.488281 1.5 145.933594 10.371094 146.804688 20.792969 L 165.214844 240.421875 C 166 249.832031 175.074219 257.121094 186 257.121094 C 196.925781 257.121094 206 249.832031 206.785156 240.421875 Z M 206.785156 240.421875 " fill-opacity="1" fill-rule="nonzero"/></g><g clip-path="url(#f211654ff8)"><path fill="#fe074c" d="M 234.644531 327.378906 C 236.703125 327.378906 238.386719 325.695312 238.386719 323.636719 L 238.386719 314.585938 C 238.386719 312.527344 236.703125 310.84375 234.644531 310.84375 L 230.757812 310.84375 C 228.699219 310.84375 226.519531 309.230469 225.914062 307.261719 L 222.597656 299.210938 C 221.621094 297.398438 222.015625 294.722656 223.472656 293.265625 L 226.222656 290.515625 C 227.679688 289.058594 227.679688 286.675781 226.222656 285.21875 L 219.824219 278.820312 C 218.367188 277.363281 215.984375 277.363281 214.527344 278.820312 L 211.777344 281.570312 C 210.320312 283.027344 207.644531 283.421875 205.832031 282.445312 L 197.777344 279.132812 C 195.8125 278.527344 194.203125 276.347656 194.203125 274.289062 L 194.203125 270.398438 C 194.203125 268.339844 192.515625 266.65625 190.457031 266.65625 L 181.40625 266.65625 C 179.347656 266.65625 177.664062 268.339844 177.664062 270.398438 L 177.664062 274.289062 C 177.664062 276.347656 176.050781 278.527344 174.085938 279.132812 L 166.035156 282.445312 C 164.21875 283.421875 161.542969 283.027344 160.089844 281.570312 L 157.335938 278.820312 C 155.882812 277.363281 153.5 277.363281 152.042969 278.820312 L 145.644531 285.21875 C 144.1875 286.675781 144.1875 289.058594 145.644531 290.515625 L 148.394531 293.265625 C 149.851562 294.722656 150.246094 297.398438 149.273438 299.210938 L 145.953125 307.261719 C 145.351562 309.230469 143.167969 310.839844 141.109375 310.839844 L 137.226562 310.839844 C 135.167969 310.839844 133.480469 312.523438 133.480469 314.585938 L 133.480469 323.636719 C 133.480469 325.695312 135.167969 327.378906 137.226562 327.378906 L 141.109375 327.378906 C 143.167969 327.378906 145.351562 328.988281 145.953125 330.957031 L 149.273438 339.011719 C 150.246094 340.824219 149.851562 343.5 148.398438 344.957031 L 145.644531 347.707031 C 144.1875 349.164062 144.1875 351.546875 145.644531 353.003906 L 152.042969 359.402344 C 153.5 360.859375 155.882812 360.855469 157.335938 359.402344 L 160.089844 356.648438 C 161.546875 355.195312 164.222656 354.800781 166.035156 355.773438 L 174.085938 359.089844 C 176.054688 359.695312 177.664062 361.875 177.664062 363.933594 L 177.664062 367.824219 C 177.664062 369.882812 179.347656 371.566406 181.40625 371.566406 L 190.460938 371.566406 C 192.519531 371.566406 194.203125 369.882812 194.203125 367.824219 L 194.203125 363.933594 C 194.203125 361.875 195.8125 359.695312 197.78125 359.089844 L 205.832031 355.773438 C 207.644531 354.800781 210.320312 355.191406 211.777344 356.648438 L 214.53125 359.402344 C 215.984375 360.859375 218.371094 360.855469 219.824219 359.402344 L 226.222656 353.003906 C 227.679688 351.546875 227.679688 349.164062 226.222656 347.707031 L 223.472656 344.957031 C 222.015625 343.5 221.625 340.824219 222.597656 339.011719 L 225.914062 330.957031 C 226.519531 328.988281 228.699219 327.378906 230.757812 327.378906 Z M 185.933594 340.691406 C 174.015625 340.691406 164.351562 331.027344 164.351562 319.109375 C 164.351562 307.191406 174.015625 297.53125 185.933594 297.53125 C 197.851562 297.53125 207.511719 307.191406 207.511719 319.109375 C 207.511719 331.027344 197.851562 340.691406 185.933594 340.691406 Z M 185.933594 340.691406 " fill-opacity="1" fill-rule="nonzero"/></g></svg>