<svg xmlns="http://www.w3.org/2000/svg" xmlns:xlink="http://www.w3.org/1999/xlink" width="500" zoomAndPan="magnify" viewBox="0 0 375 374.999991" height="500" preserveAspectRatio="xMidYMid meet" version="1.0"><defs><clipPath id="4f5d3913fb"><path d="M 3 183 L 166 183 L 166 346 L 3 346 Z M 3 183 " clip-rule="nonzero"/></clipPath><clipPath id="775bff661e"><path d="M -19.65625 212.710938 L 136.789062 160.269531 L 189.230469 316.714844 L 32.785156 369.15625 Z M -19.65625 212.710938 " clip-rule="nonzero"/></clipPath><clipPath id="42eecbae3e"><path d="M -19.65625 212.710938 L 136.789062 160.269531 L 189.230469 316.714844 L 32.785156 369.15625 Z M -19.65625 212.710938 " clip-rule="nonzero"/></clipPath><clipPath id="141dcdcc93"><path d="M 152 98 L 373 98 L 373 319 L 152 319 Z M 152 98 " clip-rule="nonzero"/></clipPath><clipPath id="5bf5764fea"><path d="M 108.5625 188.125 L 283.285156 54.851562 L 416.558594 229.574219 L 241.835938 362.847656 Z M 108.5625 188.125 " clip-rule="nonzero"/></clipPath><clipPath id="2049574306"><path d="M 108.5625 188.125 L 283.285156 54.851562 L 416.558594 229.574219 L 241.835938 362.847656 Z M 108.5625 188.125 " clip-rule="nonzero"/></clipPath><clipPath id="e0a9b170ff"><path d="M 41 49 L 176 49 L 176 183 L 41 183 Z M 41 49 " clip-rule="nonzero"/></clipPath><clipPath id="077aa52563"><path d="M 15.667969 96.976562 L 127.667969 22.957031 L 201.6875 134.957031 L 89.6875 208.980469 Z M 15.667969 96.976562 " clip-rule="nonzero"/></clipPath><clipPath id="82b1fb2365"><path d="M 15.667969 96.976562 L 127.667969 22.957031 L 201.6875 134.957031 L 89.6875 208.980469 Z M 15.667969 96.976562 " clip-rule="nonzero"/></clipPath></defs><g clip-path="url(#4f5d3913fb)"><g clip-path="url(#775bff661e)"><g clip-path="url(#42eecbae3e)"><path fill="#fe074c" d="M 161.453125 252.644531 C 164.519531 251.617188 166.191406 248.261719 165.160156 245.191406 L 160.636719 231.695312 C 159.609375 228.625 156.253906 226.953125 153.183594 227.984375 L 147.390625 229.925781 C 144.320312 230.957031 140.265625 229.644531 138.378906 227.011719 L 129.40625 216.664062 C 127.050781 214.445312 126.300781 210.257812 127.742188 207.359375 L 130.46875 201.882812 C 131.910156 198.984375 130.722656 195.433594 127.824219 193.988281 L 115.082031 187.644531 C 112.183594 186.199219 108.628906 187.390625 107.1875 190.289062 L 104.457031 195.769531 C 103.015625 198.667969 99.222656 200.589844 96.03125 200.042969 L 82.367188 199.125 C 79.128906 199.207031 75.640625 196.761719 74.609375 193.691406 L 72.667969 187.894531 C 71.640625 184.824219 68.285156 183.15625 65.214844 184.183594 L 51.71875 188.707031 C 48.648438 189.738281 46.980469 193.089844 48.007812 196.160156 L 49.949219 201.957031 C 50.980469 205.027344 49.667969 209.082031 47.039062 210.96875 L 36.6875 219.9375 C 34.46875 222.296875 30.285156 223.046875 27.386719 221.601562 L 21.90625 218.875 C 19.007812 217.429688 15.457031 218.621094 14.011719 221.519531 L 7.667969 234.261719 C 6.226562 237.164062 7.417969 240.714844 10.316406 242.15625 L 15.796875 244.882812 C 18.695312 246.328125 20.617188 250.121094 20.074219 253.3125 L 19.152344 266.976562 C 19.234375 270.214844 16.789062 273.703125 13.71875 274.730469 L 7.925781 276.675781 C 4.855469 277.703125 3.183594 281.058594 4.214844 284.128906 L 8.738281 297.625 C 9.765625 300.695312 13.121094 302.367188 16.191406 301.335938 L 21.984375 299.394531 C 25.054688 298.367188 29.109375 299.675781 30.996094 302.308594 L 39.96875 312.65625 C 42.328125 314.875 43.078125 319.0625 41.632812 321.960938 L 38.90625 327.441406 C 37.460938 330.335938 38.652344 333.890625 41.550781 335.332031 L 54.292969 341.675781 C 57.191406 343.121094 60.742188 341.929688 62.1875 339.03125 L 64.914062 333.550781 C 66.359375 330.652344 70.152344 328.726562 73.339844 329.277344 L 87.003906 330.195312 C 90.242188 330.113281 93.730469 332.558594 94.761719 335.632812 L 96.703125 341.425781 C 97.734375 344.496094 101.085938 346.167969 104.15625 345.136719 L 117.652344 340.613281 C 120.722656 339.585938 122.394531 336.230469 121.363281 333.160156 L 119.421875 327.363281 C 118.390625 324.292969 119.703125 320.238281 122.335938 318.351562 L 132.683594 309.382812 C 134.898438 307.023438 139.085938 306.273438 141.984375 307.714844 L 147.46875 310.445312 C 150.363281 311.886719 153.917969 310.695312 155.359375 307.796875 L 161.703125 295.054688 C 163.144531 292.160156 161.957031 288.605469 159.058594 287.160156 L 153.578125 284.433594 C 150.679688 282.992188 148.757812 279.195312 149.300781 276.007812 L 150.21875 262.34375 C 150.140625 259.105469 152.585938 255.617188 155.65625 254.585938 Z M 95.472656 296.839844 C 77.699219 302.796875 58.464844 293.21875 52.507812 275.449219 C 46.550781 257.675781 56.128906 238.4375 73.898438 232.480469 C 91.667969 226.523438 110.90625 236.101562 116.863281 253.875 C 122.820312 271.644531 113.242188 290.882812 95.472656 296.839844 Z M 95.472656 296.839844 " fill-opacity="1" fill-rule="nonzero"/></g></g></g><g clip-path="url(#141dcdcc93)"><g clip-path="url(#5bf5764fea)"><g clip-path="url(#2049574306)"><path fill="#2d8ef1" d="M 353.835938 160.746094 C 357.261719 158.132812 357.929688 153.191406 355.316406 149.765625 L 343.824219 134.703125 C 341.210938 131.277344 336.273438 130.613281 332.84375 133.226562 L 326.378906 138.160156 C 322.953125 140.773438 317.28125 140.859375 313.773438 138.351562 L 298.035156 129.164062 C 294.113281 127.378906 291.375 122.429688 291.949219 118.160156 L 293.035156 110.089844 C 293.605469 105.820312 290.585938 101.855469 286.316406 101.28125 L 267.542969 98.753906 C 263.269531 98.179688 259.308594 101.203125 258.730469 105.472656 L 257.644531 113.542969 C 257.070312 117.816406 253.117188 121.867188 248.863281 122.546875 L 231.253906 127.25 C 227.214844 128.742188 221.769531 127.15625 219.15625 123.730469 L 214.222656 117.261719 C 211.609375 113.835938 206.667969 113.171875 203.242188 115.785156 L 188.179688 127.273438 C 184.753906 129.886719 184.089844 134.828125 186.703125 138.253906 L 191.632812 144.722656 C 194.246094 148.148438 194.335938 153.820312 191.832031 157.324219 L 182.640625 173.058594 C 180.859375 176.984375 175.90625 179.722656 171.636719 179.148438 L 163.566406 178.0625 C 159.292969 177.488281 155.332031 180.511719 154.753906 184.78125 L 152.230469 203.554688 C 151.65625 207.824219 154.679688 211.789062 158.949219 212.363281 L 167.023438 213.449219 C 171.292969 214.023438 175.34375 217.976562 176.027344 222.230469 L 180.726562 239.839844 C 182.21875 243.882812 180.632812 249.328125 177.207031 251.941406 L 170.742188 256.871094 C 167.316406 259.484375 166.652344 264.425781 169.265625 267.851562 L 180.753906 282.917969 C 183.367188 286.34375 188.308594 287.007812 191.734375 284.394531 L 198.203125 279.460938 C 201.628906 276.847656 207.296875 276.761719 210.800781 279.265625 L 226.546875 288.457031 C 230.46875 290.234375 233.210938 295.191406 232.632812 299.460938 L 231.546875 307.535156 C 230.96875 311.804688 233.992188 315.765625 238.265625 316.339844 L 257.035156 318.871094 C 261.308594 319.445312 265.269531 316.417969 265.84375 312.148438 L 266.933594 304.074219 C 267.507812 299.804688 271.460938 295.753906 275.714844 295.074219 L 293.320312 290.375 C 297.363281 288.882812 302.808594 290.464844 305.421875 293.894531 L 310.355469 300.359375 C 312.96875 303.785156 317.910156 304.453125 321.335938 301.839844 L 336.398438 290.347656 C 339.824219 287.734375 340.488281 282.792969 337.875 279.367188 L 332.941406 272.898438 C 330.328125 269.472656 330.242188 263.804688 332.746094 260.296875 L 341.9375 244.5625 C 343.714844 240.636719 348.667969 237.894531 352.9375 238.472656 L 361.015625 239.554688 C 365.285156 240.132812 369.246094 237.105469 369.820312 232.835938 L 372.347656 214.066406 C 372.921875 209.796875 369.898438 205.828125 365.628906 205.253906 L 357.558594 204.167969 C 353.285156 203.59375 349.234375 199.640625 348.554688 195.386719 L 343.851562 177.78125 C 342.359375 173.738281 343.945312 168.292969 347.371094 165.679688 Z M 289.675781 244.71875 C 269.847656 259.847656 241.507812 256.035156 226.378906 236.203125 C 211.25 216.371094 215.066406 188.027344 234.894531 172.902344 C 254.726562 157.777344 283.070312 161.585938 298.199219 181.421875 C 313.324219 201.25 309.507812 229.59375 289.675781 244.71875 Z M 289.675781 244.71875 " fill-opacity="1" fill-rule="nonzero"/></g></g></g><g clip-path="url(#e0a9b170ff)"><g clip-path="url(#077aa52563)"><g clip-path="url(#82b1fb2365)"><path fill="#ffce01" d="M 166.191406 90.421875 C 168.386719 88.972656 168.992188 85.988281 167.542969 83.792969 L 161.167969 74.148438 C 159.71875 71.953125 156.734375 71.34375 154.539062 72.792969 L 150.398438 75.53125 C 148.203125 76.980469 144.746094 76.800781 142.714844 75.128906 L 133.507812 68.882812 C 131.191406 67.636719 129.726562 64.507812 130.253906 61.929688 L 131.246094 57.058594 C 131.773438 54.480469 130.09375 51.941406 127.515625 51.417969 L 116.1875 49.101562 C 113.609375 48.578125 111.070312 50.253906 110.542969 52.832031 L 109.550781 57.703125 C 109.023438 60.28125 106.445312 62.585938 103.828125 62.824219 L 92.910156 64.960938 C 90.386719 65.703125 87.136719 64.515625 85.683594 62.320312 L 82.945312 58.175781 C 81.496094 55.980469 78.515625 55.371094 76.320312 56.824219 L 66.671875 63.199219 C 64.476562 64.648438 63.867188 67.632812 65.320312 69.828125 L 68.058594 73.96875 C 69.507812 76.164062 69.324219 79.621094 67.65625 81.652344 L 61.410156 90.859375 C 60.160156 93.175781 57.03125 94.640625 54.457031 94.113281 L 49.585938 93.117188 C 47.007812 92.589844 44.46875 94.269531 43.941406 96.847656 L 41.628906 108.175781 C 41.101562 110.753906 42.78125 113.292969 45.359375 113.820312 L 50.230469 114.8125 C 52.808594 115.339844 55.113281 117.914062 55.351562 120.535156 L 57.488281 131.453125 C 58.230469 133.976562 57.039062 137.230469 54.847656 138.679688 L 50.703125 141.417969 C 48.507812 142.867188 47.902344 145.847656 49.351562 148.042969 L 55.726562 157.691406 C 57.179688 159.886719 60.160156 160.496094 62.355469 159.046875 L 66.496094 156.308594 C 68.691406 154.859375 72.148438 155.039062 74.179688 156.710938 L 83.390625 162.957031 C 85.707031 164.203125 87.171875 167.332031 86.644531 169.910156 L 85.648438 174.78125 C 85.121094 177.359375 86.800781 179.898438 89.378906 180.425781 L 100.707031 182.738281 C 103.285156 183.265625 105.820312 181.585938 106.347656 179.007812 L 107.34375 174.136719 C 107.871094 171.558594 110.445312 169.253906 113.0625 169.015625 L 123.984375 166.878906 C 126.507812 166.136719 129.757812 167.324219 131.207031 169.523438 L 133.945312 173.664062 C 135.398438 175.859375 138.378906 176.46875 140.574219 175.019531 L 150.222656 168.640625 C 152.414062 167.191406 153.023438 164.210938 151.574219 162.015625 L 148.835938 157.871094 C 147.386719 155.675781 147.566406 152.21875 149.234375 150.1875 L 155.484375 140.980469 C 156.730469 138.664062 159.859375 137.199219 162.4375 137.726562 L 167.308594 138.71875 C 169.886719 139.246094 172.425781 137.566406 172.953125 134.992188 L 175.265625 123.660156 C 175.792969 121.085938 174.113281 118.542969 171.535156 118.019531 L 166.664062 117.023438 C 164.085938 116.496094 161.78125 113.921875 161.542969 111.304688 L 159.40625 100.386719 C 158.664062 97.863281 159.851562 94.609375 162.046875 93.160156 Z M 123.648438 138.921875 C 110.945312 147.316406 93.839844 143.824219 85.445312 131.121094 C 77.046875 118.417969 80.539062 101.3125 93.242188 92.917969 C 105.945312 84.523438 123.050781 88.015625 131.449219 100.71875 C 139.84375 113.421875 136.351562 130.527344 123.648438 138.921875 Z M 123.648438 138.921875 " fill-opacity="1" fill-rule="nonzero"/></g></g></g></svg>