<svg xmlns="http://www.w3.org/2000/svg" xmlns:xlink="http://www.w3.org/1999/xlink" width="500" zoomAndPan="magnify" viewBox="0 0 375 225" height="300" preserveAspectRatio="xMidYMid meet" version="1.0"><defs><g/></defs><g fill="#ffffff" fill-opacity="1"><g transform="translate(195.009497, 189.088661)"><g><path d="M 69.078125 0 L 62.296875 -22.28125 L 28.171875 -22.28125 L 21.375 0 L 0 0 L 33.03125 -93.984375 L 57.296875 -93.984375 L 90.453125 0 Z M 57.546875 -38.921875 C 51.273438 -59.109375 47.742188 -70.523438 46.953125 -73.171875 C 46.160156 -75.816406 45.597656 -77.910156 45.265625 -79.453125 C 43.847656 -73.984375 39.8125 -60.472656 33.15625 -38.921875 Z M 57.546875 -38.921875 "/></g></g></g><g fill="#ffffff" fill-opacity="1"><g transform="translate(285.465318, 189.088661)"><g><path d="M 51.53125 -78.421875 C 44.0625 -78.421875 38.28125 -75.613281 34.1875 -70 C 30.09375 -64.382812 28.046875 -56.566406 28.046875 -46.546875 C 28.046875 -25.671875 35.875 -15.234375 51.53125 -15.234375 C 58.101562 -15.234375 66.0625 -16.878906 75.40625 -20.171875 L 75.40625 -3.515625 C 67.726562 -0.316406 59.148438 1.28125 49.671875 1.28125 C 36.054688 1.28125 25.644531 -2.847656 18.4375 -11.109375 C 11.226562 -19.367188 7.625 -31.222656 7.625 -46.671875 C 7.625 -56.398438 9.394531 -64.921875 12.9375 -72.234375 C 16.476562 -79.554688 21.566406 -85.171875 28.203125 -89.078125 C 34.835938 -92.984375 42.613281 -94.9375 51.53125 -94.9375 C 60.625 -94.9375 69.757812 -92.738281 78.9375 -88.34375 L 72.53125 -72.21875 C 69.03125 -73.875 65.507812 -75.320312 61.96875 -76.5625 C 58.425781 -77.800781 54.945312 -78.421875 51.53125 -78.421875 Z M 51.53125 -78.421875 "/></g></g></g><g fill="#ffffff" fill-opacity="1"><g transform="translate(-11.722961, 190.074776)"><g><path d="M 89.546875 0 L 50.296875 -127.90625 L 49.28125 -127.90625 C 50.695312 -101.882812 51.40625 -84.523438 51.40625 -75.828125 L 51.40625 0 L 20.515625 0 L 20.515625 -163.03125 L 67.578125 -163.03125 L 106.15625 -38.359375 L 106.828125 -38.359375 L 147.75 -163.03125 L 194.8125 -163.03125 L 194.8125 0 L 162.578125 0 L 162.578125 -77.171875 C 162.578125 -80.804688 162.632812 -85.003906 162.75 -89.765625 C 162.863281 -94.523438 163.363281 -107.164062 164.25 -127.6875 L 163.25 -127.6875 L 121.21875 0 Z M 89.546875 0 "/></g></g></g><g fill="#ffffff" fill-opacity="1"><g transform="translate(205.028063, 75.192099)"><g><path d="M 4.5625 0 L 4.5625 -36.234375 L 12.234375 -36.234375 L 12.234375 -6.34375 L 26.9375 -6.34375 L 26.9375 0 Z M 4.5625 0 "/></g></g><g transform="translate(233.702969, 75.192099)"><g/></g><g transform="translate(246.887974, 75.192099)"><g><path d="M 26.734375 0 L 24.109375 -8.625 L 10.90625 -8.625 L 8.28125 0 L 0 0 L 12.78125 -36.375 L 22.171875 -36.375 L 35.015625 0 Z M 22.28125 -15.0625 C 19.851562 -22.875 18.484375 -27.289062 18.171875 -28.3125 C 17.867188 -29.34375 17.648438 -30.15625 17.515625 -30.75 C 16.972656 -28.632812 15.414062 -23.40625 12.84375 -15.0625 Z M 22.28125 -15.0625 "/></g></g><g transform="translate(281.907544, 75.192099)"><g/></g><g transform="translate(295.092548, 75.192099)"><g><path d="M 4.5625 -36.234375 L 15.828125 -36.234375 C 20.972656 -36.234375 24.703125 -35.5 27.015625 -34.03125 C 29.335938 -32.570312 30.5 -30.25 30.5 -27.0625 C 30.5 -24.894531 29.988281 -23.117188 28.96875 -21.734375 C 27.957031 -20.347656 26.609375 -19.515625 24.921875 -19.234375 L 24.921875 -18.984375 C 27.222656 -18.472656 28.878906 -17.515625 29.890625 -16.109375 C 30.910156 -14.703125 31.421875 -12.832031 31.421875 -10.5 C 31.421875 -7.195312 30.226562 -4.617188 27.84375 -2.765625 C 25.457031 -0.921875 22.210938 0 18.109375 0 L 4.5625 0 Z M 12.234375 -21.875 L 16.703125 -21.875 C 18.785156 -21.875 20.289062 -22.195312 21.21875 -22.84375 C 22.15625 -23.488281 22.625 -24.554688 22.625 -26.046875 C 22.625 -27.429688 22.113281 -28.425781 21.09375 -29.03125 C 20.082031 -29.632812 18.476562 -29.9375 16.28125 -29.9375 L 12.234375 -29.9375 Z M 12.234375 -15.78125 L 12.234375 -6.34375 L 17.25 -6.34375 C 19.363281 -6.34375 20.921875 -6.742188 21.921875 -7.546875 C 22.929688 -8.359375 23.4375 -9.601562 23.4375 -11.28125 C 23.4375 -14.28125 21.289062 -15.78125 17 -15.78125 Z M 12.234375 -15.78125 "/></g></g><g transform="translate(329.195116, 75.192099)"><g/></g><g transform="translate(342.38012, 75.192099)"><g><path d="M 25.9375 -10.0625 C 25.9375 -6.789062 24.757812 -4.210938 22.40625 -2.328125 C 20.050781 -0.441406 16.78125 0.5 12.59375 0.5 C 8.726562 0.5 5.304688 -0.226562 2.328125 -1.6875 L 2.328125 -8.828125 C 4.773438 -7.734375 6.84375 -6.960938 8.53125 -6.515625 C 10.226562 -6.066406 11.78125 -5.84375 13.1875 -5.84375 C 14.863281 -5.84375 16.148438 -6.164062 17.046875 -6.8125 C 17.953125 -7.457031 18.40625 -8.414062 18.40625 -9.6875 C 18.40625 -10.394531 18.207031 -11.023438 17.8125 -11.578125 C 17.414062 -12.140625 16.832031 -12.675781 16.0625 -13.1875 C 15.300781 -13.695312 13.738281 -14.515625 11.375 -15.640625 C 9.15625 -16.679688 7.492188 -17.679688 6.390625 -18.640625 C 5.285156 -19.597656 4.398438 -20.710938 3.734375 -21.984375 C 3.078125 -23.253906 2.75 -24.738281 2.75 -26.4375 C 2.75 -29.644531 3.832031 -32.164062 6 -34 C 8.175781 -35.832031 11.179688 -36.75 15.015625 -36.75 C 16.898438 -36.75 18.695312 -36.523438 20.40625 -36.078125 C 22.113281 -35.628906 23.898438 -35.003906 25.765625 -34.203125 L 23.296875 -28.21875 C 21.359375 -29.019531 19.757812 -29.578125 18.5 -29.890625 C 17.238281 -30.203125 15.992188 -30.359375 14.765625 -30.359375 C 13.316406 -30.359375 12.203125 -30.019531 11.421875 -29.34375 C 10.648438 -28.664062 10.265625 -27.78125 10.265625 -26.6875 C 10.265625 -26.007812 10.421875 -25.414062 10.734375 -24.90625 C 11.046875 -24.40625 11.539062 -23.921875 12.21875 -23.453125 C 12.90625 -22.984375 14.53125 -22.140625 17.09375 -20.921875 C 20.476562 -19.296875 22.796875 -17.671875 24.046875 -16.046875 C 25.304688 -14.421875 25.9375 -12.425781 25.9375 -10.0625 Z M 25.9375 -10.0625 "/></g></g></g></svg>