<svg xmlns="http://www.w3.org/2000/svg" xmlns:xlink="http://www.w3.org/1999/xlink" width="800" zoomAndPan="magnify" viewBox="0 0 600 374.999991" height="500" preserveAspectRatio="xMidYMid meet" version="1.0"><defs><g/><clipPath id="795c93fb51"><path d="M 349 102.382812 L 457 102.382812 L 457 258.382812 L 349 258.382812 Z M 349 102.382812 " clip-rule="nonzero"/></clipPath><clipPath id="ccb3b24857"><path d="M 439 155 L 519 155 L 519 255 L 439 255 Z M 439 155 " clip-rule="nonzero"/></clipPath><clipPath id="a3ea8eb3f0"><path d="M 437.351562 172.949219 L 468.84375 152.59375 L 526.660156 242.03125 L 495.167969 262.390625 Z M 437.351562 172.949219 " clip-rule="nonzero"/></clipPath><clipPath id="82187065df"><path d="M 437.351562 172.949219 L 468.84375 152.59375 L 526.660156 242.03125 L 495.167969 262.390625 Z M 437.351562 172.949219 " clip-rule="nonzero"/></clipPath><clipPath id="ddb2707d88"><path d="M 442 157 L 470 157 L 470 176 L 442 176 Z M 442 157 " clip-rule="nonzero"/></clipPath><clipPath id="fdf7f37be7"><path d="M 437.351562 172.949219 L 468.84375 152.59375 L 526.660156 242.03125 L 495.167969 262.390625 Z M 437.351562 172.949219 " clip-rule="nonzero"/></clipPath><clipPath id="c3ede821f4"><path d="M 437.351562 172.949219 L 468.84375 152.59375 L 526.660156 242.03125 L 495.167969 262.390625 Z M 437.351562 172.949219 " clip-rule="nonzero"/></clipPath><clipPath id="e08ed3d0bb"><path d="M 443 160 L 485 160 L 485 201 L 443 201 Z M 443 160 " clip-rule="nonzero"/></clipPath><clipPath id="bfbf8d6af6"><path d="M 437.351562 172.949219 L 468.84375 152.59375 L 526.660156 242.03125 L 495.167969 262.390625 Z M 437.351562 172.949219 " clip-rule="nonzero"/></clipPath><clipPath id="418c108674"><path d="M 437.351562 172.949219 L 468.84375 152.59375 L 526.660156 242.03125 L 495.167969 262.390625 Z M 437.351562 172.949219 " clip-rule="nonzero"/></clipPath><clipPath id="867339dcd6"><path d="M 446 163 L 473 163 L 473 182 L 446 182 Z M 446 163 " clip-rule="nonzero"/></clipPath><clipPath id="55b4be4671"><path d="M 437.351562 172.949219 L 468.84375 152.59375 L 526.660156 242.03125 L 495.167969 262.390625 Z M 437.351562 172.949219 " clip-rule="nonzero"/></clipPath><clipPath id="f1a1281b99"><path d="M 437.351562 172.949219 L 468.84375 152.59375 L 526.660156 242.03125 L 495.167969 262.390625 Z M 437.351562 172.949219 " clip-rule="nonzero"/></clipPath><clipPath id="048d321419"><path d="M 462 187 L 486 187 L 486 203 L 462 203 Z M 462 187 " clip-rule="nonzero"/></clipPath><clipPath id="8e66a20874"><path d="M 437.351562 172.949219 L 468.84375 152.59375 L 526.660156 242.03125 L 495.167969 262.390625 Z M 437.351562 172.949219 " clip-rule="nonzero"/></clipPath><clipPath id="b59a56dc66"><path d="M 437.351562 172.949219 L 468.84375 152.59375 L 526.660156 242.03125 L 495.167969 262.390625 Z M 437.351562 172.949219 " clip-rule="nonzero"/></clipPath><clipPath id="ed22c2b013"><path d="M 463 189 L 517 189 L 517 253 L 463 253 Z M 463 189 " clip-rule="nonzero"/></clipPath><clipPath id="cbe2b7a893"><path d="M 437.351562 172.949219 L 468.84375 152.59375 L 526.660156 242.03125 L 495.167969 262.390625 Z M 437.351562 172.949219 " clip-rule="nonzero"/></clipPath><clipPath id="fa4b820623"><path d="M 437.351562 172.949219 L 468.84375 152.59375 L 526.660156 242.03125 L 495.167969 262.390625 Z M 437.351562 172.949219 " clip-rule="nonzero"/></clipPath><clipPath id="f42e8e0bec"><path d="M 25 86 L 126 86 L 126 188 L 25 188 Z M 25 86 " clip-rule="nonzero"/></clipPath><clipPath id="62c09b93d6"><path d="M 10.449219 104.78125 L 107.164062 72.363281 L 139.582031 169.074219 L 42.871094 201.492188 Z M 10.449219 104.78125 " clip-rule="nonzero"/></clipPath><clipPath id="db2a1da15d"><path d="M 10.449219 104.78125 L 107.164062 72.363281 L 139.582031 169.074219 L 42.871094 201.492188 Z M 10.449219 104.78125 " clip-rule="nonzero"/></clipPath><clipPath id="a176ffdcc7"><path d="M 117 34 L 254 34 L 254 171 L 117 171 Z M 117 34 " clip-rule="nonzero"/></clipPath><clipPath id="a48f182af8"><path d="M 89.976562 89.535156 L 198.507812 6.75 L 281.292969 115.277344 L 172.761719 198.0625 Z M 89.976562 89.535156 " clip-rule="nonzero"/></clipPath><clipPath id="b90d9c7cd1"><path d="M 89.976562 89.535156 L 198.507812 6.75 L 281.292969 115.277344 L 172.761719 198.0625 Z M 89.976562 89.535156 " clip-rule="nonzero"/></clipPath><clipPath id="1e235f6be3"><path d="M 48 3 L 132 3 L 132 87 L 48 87 Z M 48 3 " clip-rule="nonzero"/></clipPath><clipPath id="3883871772"><path d="M 32.359375 33 L 101.8125 -12.902344 L 147.714844 56.550781 L 78.261719 102.453125 Z M 32.359375 33 " clip-rule="nonzero"/></clipPath><clipPath id="daf98a8e99"><path d="M 32.359375 33 L 101.8125 -12.902344 L 147.714844 56.550781 L 78.261719 102.453125 Z M 32.359375 33 " clip-rule="nonzero"/></clipPath></defs><g fill="#f2f2f2" fill-opacity="1"><g transform="translate(24.064149, 345.904927)"><g><path d="M 76.4375 -145.3125 C 77 -146.4375 78.050781 -147 79.59375 -147 L 103.953125 -147 C 104.648438 -147 105.242188 -146.753906 105.734375 -146.265625 C 106.222656 -145.773438 106.46875 -145.179688 106.46875 -144.484375 L 106.46875 -2.515625 C 106.46875 -1.816406 106.222656 -1.222656 105.734375 -0.734375 C 105.242188 -0.242188 104.648438 0 103.953125 0 L 79.375 0 C 78.675781 0 78.082031 -0.242188 77.59375 -0.734375 C 77.101562 -1.222656 76.859375 -1.816406 76.859375 -2.515625 L 76.859375 -96.8125 C 76.859375 -97.375 76.71875 -97.65625 76.4375 -97.65625 C 76.15625 -97.65625 75.875 -97.441406 75.59375 -97.015625 L 59.21875 -68.046875 C 58.519531 -66.921875 57.960938 -66.359375 57.546875 -66.359375 C 57.117188 -66.359375 56.554688 -66.921875 55.859375 -68.046875 L 39.484375 -97.015625 C 39.203125 -97.441406 38.921875 -97.65625 38.640625 -97.65625 C 38.359375 -97.65625 38.21875 -97.375 38.21875 -96.8125 L 38.21875 -2.515625 C 38.21875 -1.816406 37.972656 -1.222656 37.484375 -0.734375 C 36.992188 -0.242188 36.398438 0 35.703125 0 L 11.125 0 C 10.425781 0 9.832031 -0.242188 9.34375 -0.734375 C 8.851562 -1.222656 8.609375 -1.816406 8.609375 -2.515625 L 8.609375 -144.484375 C 8.609375 -145.179688 8.851562 -145.773438 9.34375 -146.265625 C 9.832031 -146.753906 10.425781 -147 11.125 -147 L 35.28125 -147 C 36.675781 -147 37.726562 -146.4375 38.4375 -145.3125 L 57.125 -111.9375 C 57.539062 -111.375 57.957031 -111.375 58.375 -111.9375 Z M 76.4375 -145.3125 "/></g></g></g><g fill="#f2f2f2" fill-opacity="1"><g transform="translate(139.134055, 345.904927)"><g><path d="M 70.984375 0 C 69.296875 0 68.382812 -0.769531 68.25 -2.3125 L 64.890625 -22.46875 C 64.890625 -23.164062 64.46875 -23.515625 63.625 -23.515625 L 36.953125 -23.515625 C 36.117188 -23.515625 35.703125 -23.164062 35.703125 -22.46875 L 32.34375 -2.3125 C 32.195312 -0.769531 31.285156 0 29.609375 0 L 5.046875 0 C 3.222656 0 2.519531 -0.910156 2.9375 -2.734375 L 33.8125 -144.6875 C 34.09375 -146.226562 35.003906 -147 36.546875 -147 L 64.890625 -147 C 66.429688 -147 67.34375 -146.226562 67.625 -144.6875 L 98.28125 -2.734375 L 98.484375 -1.890625 C 98.484375 -0.628906 97.71875 0 96.1875 0 Z M 39.90625 -47.453125 C 39.90625 -46.753906 40.179688 -46.40625 40.734375 -46.40625 L 59.640625 -46.40625 C 60.335938 -46.40625 60.617188 -46.753906 60.484375 -47.453125 L 50.609375 -104.796875 C 50.472656 -105.210938 50.265625 -105.421875 49.984375 -105.421875 C 49.703125 -105.421875 49.488281 -105.210938 49.34375 -104.796875 Z M 39.90625 -47.453125 "/></g></g></g><g fill="#f2f2f2" fill-opacity="1"><g transform="translate(240.345165, 345.904927)"><g><path d="M 48.9375 1.6875 C 36.332031 1.6875 26.210938 -2.054688 18.578125 -9.546875 C 10.953125 -17.046875 7.140625 -27.09375 7.140625 -39.6875 L 7.140625 -107.734375 C 7.140625 -120.191406 10.953125 -130.128906 18.578125 -137.546875 C 26.210938 -144.972656 36.332031 -148.6875 48.9375 -148.6875 C 61.675781 -148.6875 71.859375 -144.972656 79.484375 -137.546875 C 87.117188 -130.128906 90.9375 -120.191406 90.9375 -107.734375 L 90.9375 -105.421875 C 90.9375 -104.722656 90.6875 -104.128906 90.1875 -103.640625 C 89.695312 -103.148438 89.101562 -102.90625 88.40625 -102.90625 L 63.84375 -101.84375 C 62.15625 -101.84375 61.3125 -102.613281 61.3125 -104.15625 L 61.3125 -109.625 C 61.3125 -113.675781 60.191406 -116.960938 57.953125 -119.484375 C 55.710938 -122.003906 52.707031 -123.265625 48.9375 -123.265625 C 45.289062 -123.265625 42.347656 -122.003906 40.109375 -119.484375 C 37.867188 -116.960938 36.75 -113.675781 36.75 -109.625 L 36.75 -37.171875 C 36.75 -33.109375 37.867188 -29.851562 40.109375 -27.40625 C 42.347656 -24.957031 45.289062 -23.734375 48.9375 -23.734375 C 52.707031 -23.734375 55.710938 -24.957031 57.953125 -27.40625 C 60.191406 -29.851562 61.3125 -33.109375 61.3125 -37.171875 L 61.3125 -42.84375 C 61.3125 -43.539062 61.554688 -44.132812 62.046875 -44.625 C 62.546875 -45.113281 63.144531 -45.359375 63.84375 -45.359375 L 88.40625 -44.3125 C 89.101562 -44.3125 89.695312 -44.066406 90.1875 -43.578125 C 90.6875 -43.085938 90.9375 -42.492188 90.9375 -41.796875 L 90.9375 -39.6875 C 90.9375 -27.09375 87.082031 -17.046875 79.375 -9.546875 C 71.675781 -2.054688 61.53125 1.6875 48.9375 1.6875 Z M 48.9375 1.6875 "/></g></g></g><g fill="#f2f2f2" fill-opacity="1"><g transform="translate(337.779963, 345.904927)"><g/></g></g><g fill="#ffffff" fill-opacity="1"><g transform="translate(334.50892, 342.686249)"><g><path d="M 9.25 0 L 9.25 -73.484375 L 24.828125 -73.484375 L 24.828125 -12.875 L 54.640625 -12.875 L 54.640625 0 Z M 9.25 0 "/></g></g></g><g fill="#ffffff" fill-opacity="1"><g transform="translate(392.660688, 342.686249)"><g><path d="M 54.234375 0 L 48.90625 -17.484375 L 22.109375 -17.484375 L 16.78125 0 L 0 0 L 25.9375 -73.78125 L 44.984375 -73.78125 L 71.015625 0 Z M 45.1875 -30.5625 C 40.257812 -46.40625 37.484375 -55.363281 36.859375 -57.4375 C 36.242188 -59.519531 35.800781 -61.164062 35.53125 -62.375 C 34.425781 -58.082031 31.257812 -47.476562 26.03125 -30.5625 Z M 45.1875 -30.5625 "/></g></g></g><g fill="#ffffff" fill-opacity="1"><g transform="translate(463.679227, 342.686249)"><g><path d="M 9.25 -73.484375 L 32.125 -73.484375 C 42.539062 -73.484375 50.101562 -72 54.8125 -69.03125 C 59.519531 -66.070312 61.875 -61.359375 61.875 -54.890625 C 61.875 -50.492188 60.84375 -46.890625 58.78125 -44.078125 C 56.71875 -41.265625 53.976562 -39.570312 50.5625 -39 L 50.5625 -38.5 C 55.21875 -37.457031 58.578125 -35.507812 60.640625 -32.65625 C 62.703125 -29.8125 63.734375 -26.03125 63.734375 -21.3125 C 63.734375 -14.613281 61.3125 -9.382812 56.46875 -5.625 C 51.625 -1.875 45.046875 0 36.734375 0 L 9.25 0 Z M 24.828125 -44.375 L 33.875 -44.375 C 38.09375 -44.375 41.148438 -45.023438 43.046875 -46.328125 C 44.941406 -47.640625 45.890625 -49.804688 45.890625 -52.828125 C 45.890625 -55.640625 44.859375 -57.65625 42.796875 -58.875 C 40.734375 -60.101562 37.472656 -60.71875 33.015625 -60.71875 L 24.828125 -60.71875 Z M 24.828125 -32.015625 L 24.828125 -12.875 L 34.984375 -12.875 C 39.273438 -12.875 42.441406 -13.691406 44.484375 -15.328125 C 46.523438 -16.972656 47.546875 -19.488281 47.546875 -22.875 C 47.546875 -28.96875 43.191406 -32.015625 34.484375 -32.015625 Z M 24.828125 -32.015625 "/></g></g></g><g fill="#ffffff" fill-opacity="1"><g transform="translate(532.838114, 342.686249)"><g><path d="M 52.625 -20.40625 C 52.625 -13.769531 50.234375 -8.539062 45.453125 -4.71875 C 40.679688 -0.90625 34.039062 1 25.53125 1 C 17.6875 1 10.75 -0.472656 4.71875 -3.421875 L 4.71875 -17.890625 C 9.675781 -15.679688 13.875 -14.125 17.3125 -13.21875 C 20.75 -12.3125 23.890625 -11.859375 26.734375 -11.859375 C 30.148438 -11.859375 32.769531 -12.507812 34.59375 -13.8125 C 36.425781 -15.125 37.34375 -17.070312 37.34375 -19.65625 C 37.34375 -21.09375 36.941406 -22.375 36.140625 -23.5 C 35.335938 -24.625 34.15625 -25.703125 32.59375 -26.734375 C 31.039062 -27.773438 27.867188 -29.4375 23.078125 -31.71875 C 18.578125 -33.820312 15.203125 -35.847656 12.953125 -37.796875 C 10.710938 -39.742188 8.921875 -42.003906 7.578125 -44.578125 C 6.242188 -47.160156 5.578125 -50.175781 5.578125 -53.625 C 5.578125 -60.125 7.78125 -65.234375 12.1875 -68.953125 C 16.59375 -72.679688 22.679688 -74.546875 30.453125 -74.546875 C 34.273438 -74.546875 37.921875 -74.09375 41.390625 -73.1875 C 44.859375 -72.28125 48.484375 -71.003906 52.265625 -69.359375 L 47.25 -57.25 C 43.320312 -58.851562 40.078125 -59.972656 37.515625 -60.609375 C 34.953125 -61.253906 32.429688 -61.578125 29.953125 -61.578125 C 27.003906 -61.578125 24.742188 -60.890625 23.171875 -59.515625 C 21.597656 -58.140625 20.8125 -56.34375 20.8125 -54.125 C 20.8125 -52.757812 21.128906 -51.5625 21.765625 -50.53125 C 22.398438 -49.507812 23.410156 -48.519531 24.796875 -47.5625 C 26.191406 -46.613281 29.488281 -44.898438 34.6875 -42.421875 C 41.550781 -39.140625 46.253906 -35.847656 48.796875 -32.546875 C 51.347656 -29.242188 52.625 -25.195312 52.625 -20.40625 Z M 52.625 -20.40625 "/></g></g></g><path fill="#fff197" d="M 430.289062 187.300781 L 448.796875 242.03125 C 449.511719 244.144531 449.207031 246.601562 448.074219 248.378906 C 446.9375 250.15625 445.292969 251.011719 443.617188 251.011719 L 362.597656 251.011719 C 360.925781 251.011719 359.277344 250.15625 358.140625 248.378906 C 357.007812 246.601562 356.703125 244.144531 357.417969 242.03125 L 375.925781 187.300781 C 380.832031 172.910156 411.980469 194.089844 430.289062 187.300781 Z M 430.289062 187.300781 " fill-opacity="1" fill-rule="nonzero"/><path fill="#ffce01" d="M 375.925781 187.300781 L 357.417969 242.03125 C 356.703125 244.144531 357.007812 246.601562 358.140625 248.378906 C 359.277344 250.15625 360.925781 251.011719 362.597656 251.011719 L 443.617188 251.011719 C 445.289062 251.011719 446.9375 250.15625 448.074219 248.378906 C 449.207031 246.601562 449.511719 244.144531 448.796875 242.03125 L 430.289062 187.300781 C 422.082031 167.511719 404.550781 201.976562 375.925781 187.300781 Z M 375.925781 187.300781 " fill-opacity="1" fill-rule="nonzero"/><g clip-path="url(#795c93fb51)"><path stroke-linecap="round" transform="matrix(0.00868352, 0, 0, 0.00873578, 349.450911, 258.618585)" fill="none" stroke-linejoin="round" d="M 4357.914672 -17666.366606 C 3971.046974 -17666.366606 3659.303584 -17328.317295 3659.303584 -16907.991432 C 3659.303584 -16690.226862 3743.424817 -16494.372897 3877.928819 -16356.201948 C 3997.587897 -16234.128586 4132.541746 -16044.534792 4132.541746 -15865.225568 L 4132.541746 -14148.149703 C 4132.541746 -13636.604185 4049.320206 -13129.083063 3885.576203 -12648.838407 L 299.40261 -2109.390974 C 152.752762 -1677.886232 209.433378 -1196.30011 451.900459 -819.348299 C 693.917693 -442.396488 1090.682007 -217.477436 1513.987244 -217.477436 L 10844.696309 -217.477436 C 11268.451392 -217.477436 11665.215706 -442.396488 11907.232941 -819.348299 C 12149.250175 -1196.30011 12206.380638 -1677.886232 12059.280943 -2109.390974 L 8473.10735 -12648.838407 C 8309.813194 -13129.083063 8226.141808 -13636.604185 8226.141808 -14148.149703 L 8226.141808 -15865.225568 C 8226.141808 -16044.534792 8361.545502 -16234.128586 8480.754735 -16356.201948 C 8615.708583 -16494.372897 8699.829815 -16690.226862 8699.829815 -16907.991432 C 8699.829815 -17328.317295 8388.086426 -17666.366606 8000.768881 -17666.366606 Z M 4357.914672 -17666.366606 " stroke="#ffffff" stroke-width="435.00201" stroke-opacity="1" stroke-miterlimit="4"/></g><path fill="#ffffff" d="M 369.886719 217.738281 L 388.972656 217.738281 C 390.839844 217.738281 391.953125 219.25 391.46875 221.125 L 389.238281 229.785156 C 388.753906 231.664062 386.863281 233.175781 384.996094 233.175781 L 365.914062 233.175781 C 364.046875 233.175781 362.933594 231.664062 363.417969 229.785156 L 365.648438 221.125 C 366.132812 219.25 368.023438 217.738281 369.886719 217.738281 Z M 369.886719 217.738281 " fill-opacity="1" fill-rule="nonzero"/><path fill="#ffffff" d="M 370.742188 210.210938 L 370.972656 209.320312 L 372.621094 209.320312 L 371.328125 214.34375 L 370.34375 214.34375 L 371.40625 210.210938 Z M 370.742188 210.210938 " fill-opacity="1" fill-rule="nonzero"/><path fill="#ffffff" d="M 372.9375 211.765625 C 373.140625 210.972656 373.441406 210.351562 373.839844 209.898438 C 374.242188 209.449219 374.777344 209.226562 375.4375 209.226562 C 376.101562 209.226562 376.515625 209.449219 376.679688 209.898438 C 376.851562 210.351562 376.835938 210.972656 376.632812 211.765625 C 376.425781 212.566406 376.121094 213.191406 375.714844 213.648438 C 375.316406 214.101562 374.785156 214.328125 374.125 214.328125 C 373.460938 214.328125 373.046875 214.101562 372.875 213.648438 C 372.710938 213.191406 372.730469 212.566406 372.9375 211.765625 Z M 375.6875 211.765625 C 375.773438 211.425781 375.824219 211.140625 375.839844 210.914062 C 375.859375 210.679688 375.820312 210.488281 375.726562 210.339844 C 375.636719 210.195312 375.464844 210.121094 375.207031 210.121094 C 374.953125 210.121094 374.738281 210.195312 374.570312 210.339844 C 374.402344 210.488281 374.269531 210.679688 374.160156 210.914062 C 374.0625 211.140625 373.96875 211.425781 373.878906 211.765625 C 373.789062 212.117188 373.734375 212.410156 373.714844 212.648438 C 373.695312 212.882812 373.734375 213.074219 373.828125 213.21875 C 373.921875 213.363281 374.097656 213.433594 374.355469 213.433594 C 374.609375 213.433594 374.820312 213.363281 374.992188 213.21875 C 375.160156 213.074219 375.296875 212.882812 375.398438 212.648438 C 375.5 212.410156 375.597656 212.117188 375.6875 211.765625 Z M 375.6875 211.765625 " fill-opacity="1" fill-rule="nonzero"/><path fill="#ffffff" d="M 377.359375 211.765625 C 377.5625 210.972656 377.863281 210.351562 378.261719 209.898438 C 378.664062 209.449219 379.199219 209.226562 379.859375 209.226562 C 380.523438 209.226562 380.9375 209.449219 381.101562 209.898438 C 381.273438 210.351562 381.257812 210.972656 381.054688 211.765625 C 380.847656 212.566406 380.542969 213.191406 380.136719 213.648438 C 379.738281 214.101562 379.207031 214.328125 378.546875 214.328125 C 377.882812 214.328125 377.46875 214.101562 377.296875 213.648438 C 377.132812 213.191406 377.152344 212.566406 377.359375 211.765625 Z M 380.109375 211.765625 C 380.195312 211.425781 380.246094 211.140625 380.261719 210.914062 C 380.28125 210.679688 380.242188 210.488281 380.148438 210.339844 C 380.058594 210.195312 379.886719 210.121094 379.628906 210.121094 C 379.375 210.121094 379.160156 210.195312 378.992188 210.339844 C 378.824219 210.488281 378.691406 210.679688 378.582031 210.914062 C 378.484375 211.140625 378.390625 211.425781 378.300781 211.765625 C 378.210938 212.117188 378.15625 212.410156 378.136719 212.648438 C 378.117188 212.882812 378.15625 213.074219 378.25 213.21875 C 378.34375 213.363281 378.519531 213.433594 378.777344 213.433594 C 379.03125 213.433594 379.246094 213.363281 379.414062 213.21875 C 379.582031 213.074219 379.71875 212.882812 379.820312 212.648438 C 379.921875 212.410156 380.019531 212.117188 380.109375 211.765625 Z M 380.109375 211.765625 " fill-opacity="1" fill-rule="nonzero"/><path fill="#ffffff" d="M 386.933594 210.472656 C 387.398438 210.472656 387.734375 210.617188 387.941406 210.90625 C 388.15625 211.191406 388.199219 211.589844 388.066406 212.105469 L 387.488281 214.34375 L 386.53125 214.34375 L 387.074219 212.234375 C 387.148438 211.9375 387.132812 211.710938 387.023438 211.554688 C 386.914062 211.390625 386.730469 211.3125 386.46875 211.3125 C 386.207031 211.3125 385.980469 211.390625 385.785156 211.554688 C 385.59375 211.710938 385.460938 211.9375 385.382812 212.234375 L 384.839844 214.34375 L 383.882812 214.34375 L 384.425781 212.234375 C 384.5 211.9375 384.484375 211.710938 384.375 211.554688 C 384.265625 211.390625 384.078125 211.3125 383.820312 211.3125 C 383.554688 211.3125 383.324219 211.390625 383.128906 211.554688 C 382.9375 211.710938 382.804688 211.9375 382.726562 212.234375 L 382.183594 214.34375 L 381.226562 214.34375 L 382.207031 210.527344 L 383.167969 210.527344 L 383.046875 210.988281 C 383.210938 210.828125 383.402344 210.703125 383.617188 210.609375 C 383.835938 210.519531 384.0625 210.472656 384.296875 210.472656 C 384.59375 210.472656 384.839844 210.535156 385.039062 210.664062 C 385.242188 210.789062 385.375 210.96875 385.441406 211.203125 C 385.625 210.980469 385.847656 210.804688 386.113281 210.671875 C 386.386719 210.539062 386.65625 210.472656 386.933594 210.472656 Z M 386.933594 210.472656 " fill-opacity="1" fill-rule="nonzero"/><path fill="#ffffff" d="M 389.554688 213.578125 L 391.128906 213.578125 L 390.933594 214.34375 L 388.398438 214.34375 L 389.636719 209.535156 L 390.59375 209.535156 Z M 389.554688 213.578125 " fill-opacity="1" fill-rule="nonzero"/><path fill="#ffffff" d="M 428.132812 234.742188 L 427.949219 233.953125 L 429.492188 230.597656 L 430.652344 230.597656 L 431.421875 233.867188 L 432.046875 233.867188 L 432.25 234.742188 L 431.625 234.742188 L 431.863281 235.757812 L 430.867188 235.757812 L 430.628906 234.742188 Z M 429.972656 231.671875 L 429.027344 233.867188 L 430.488281 233.867188 Z M 429.972656 231.671875 " fill-opacity="1" fill-rule="nonzero"/><path fill="#ffffff" d="M 432.496094 233.078125 C 432.300781 232.25 432.296875 231.601562 432.484375 231.136719 C 432.671875 230.667969 433.109375 230.433594 433.800781 230.433594 C 434.488281 230.433594 435.035156 230.667969 435.4375 231.136719 C 435.847656 231.601562 436.148438 232.25 436.34375 233.078125 C 436.539062 233.910156 436.542969 234.5625 436.351562 235.035156 C 436.167969 235.507812 435.734375 235.746094 435.042969 235.746094 C 434.355469 235.746094 433.804688 235.507812 433.398438 235.035156 C 432.992188 234.5625 432.691406 233.910156 432.496094 233.078125 Z M 435.359375 233.078125 C 435.277344 232.722656 435.183594 232.425781 435.082031 232.1875 C 434.980469 231.945312 434.84375 231.746094 434.671875 231.59375 C 434.5 231.441406 434.285156 231.363281 434.019531 231.363281 C 433.753906 231.363281 433.570312 231.441406 433.464844 231.59375 C 433.371094 231.746094 433.324219 231.945312 433.335938 232.1875 C 433.347656 232.425781 433.398438 232.722656 433.480469 233.078125 C 433.5625 233.441406 433.65625 233.746094 433.757812 233.996094 C 433.859375 234.238281 433.996094 234.4375 434.167969 234.589844 C 434.339844 234.738281 434.558594 234.8125 434.828125 234.8125 C 435.09375 234.8125 435.277344 234.738281 435.378906 234.589844 C 435.480469 234.4375 435.527344 234.238281 435.511719 233.996094 C 435.496094 233.746094 435.445312 233.441406 435.359375 233.078125 Z M 435.359375 233.078125 " fill-opacity="1" fill-rule="nonzero"/><path fill="#ffffff" d="M 427.695312 221.21875 C 427.601562 221.015625 427.484375 220.867188 427.339844 220.765625 C 427.203125 220.664062 427.027344 220.613281 426.808594 220.613281 C 426.480469 220.613281 426.269531 220.75 426.175781 221.015625 C 426.085938 221.28125 426.105469 221.710938 426.242188 222.308594 C 426.3125 222.117188 426.441406 221.96875 426.636719 221.863281 C 426.828125 221.753906 427.054688 221.699219 427.308594 221.699219 C 427.621094 221.699219 427.910156 221.765625 428.175781 221.898438 C 428.445312 222.03125 428.675781 222.226562 428.871094 222.484375 C 429.0625 222.738281 429.199219 223.046875 429.285156 223.402344 C 429.363281 223.742188 429.367188 224.046875 429.292969 224.3125 C 429.21875 224.578125 429.070312 224.78125 428.84375 224.929688 C 428.617188 225.078125 428.324219 225.152344 427.964844 225.152344 C 427.46875 225.152344 427.054688 225.042969 426.71875 224.824219 C 426.386719 224.601562 426.117188 224.296875 425.910156 223.90625 C 425.710938 223.507812 425.539062 223.019531 425.40625 222.441406 C 425.199219 221.570312 425.195312 220.910156 425.390625 220.464844 C 425.585938 220.015625 426.003906 219.789062 426.648438 219.789062 C 427.148438 219.789062 427.566406 219.925781 427.90625 220.199219 C 428.246094 220.472656 428.484375 220.8125 428.621094 221.21875 Z M 427.277344 222.523438 C 427.023438 222.523438 426.828125 222.597656 426.695312 222.742188 C 426.558594 222.890625 426.523438 223.105469 426.589844 223.390625 C 426.65625 223.671875 426.785156 223.894531 426.980469 224.054688 C 427.179688 224.21875 427.425781 224.300781 427.714844 224.300781 C 427.96875 224.300781 428.152344 224.21875 428.265625 224.0625 C 428.378906 223.90625 428.40625 223.691406 428.34375 223.425781 C 428.277344 223.148438 428.152344 222.929688 427.96875 222.765625 C 427.785156 222.601562 427.554688 222.523438 427.277344 222.523438 Z M 427.277344 222.523438 " fill-opacity="1" fill-rule="nonzero"/><path fill="#ffffff" d="M 429.855469 222.457031 C 429.660156 221.628906 429.65625 220.984375 429.839844 220.515625 C 430.03125 220.046875 430.46875 219.8125 431.15625 219.8125 C 431.847656 219.8125 432.394531 220.046875 432.796875 220.515625 C 433.207031 220.984375 433.507812 221.628906 433.703125 222.457031 C 433.894531 223.289062 433.898438 223.941406 433.710938 224.414062 C 433.527344 224.886719 433.089844 225.125 432.402344 225.125 C 431.714844 225.125 431.164062 224.886719 430.753906 224.414062 C 430.347656 223.941406 430.050781 223.289062 429.855469 222.457031 Z M 432.71875 222.457031 C 432.636719 222.105469 432.542969 221.808594 432.4375 221.570312 C 432.339844 221.324219 432.203125 221.125 432.027344 220.972656 C 431.859375 220.820312 431.640625 220.746094 431.375 220.746094 C 431.109375 220.746094 430.925781 220.820312 430.824219 220.972656 C 430.726562 221.125 430.683594 221.324219 430.691406 221.570312 C 430.707031 221.808594 430.753906 222.105469 430.835938 222.457031 C 430.921875 222.820312 431.015625 223.125 431.117188 223.375 C 431.214844 223.617188 431.351562 223.816406 431.527344 223.96875 C 431.699219 224.117188 431.917969 224.191406 432.183594 224.191406 C 432.449219 224.191406 432.636719 224.117188 432.738281 223.96875 C 432.839844 223.816406 432.882812 223.617188 432.871094 223.375 C 432.855469 223.125 432.804688 222.820312 432.71875 222.457031 Z M 432.71875 222.457031 " fill-opacity="1" fill-rule="nonzero"/><path fill="#ffffff" d="M 422.679688 207.476562 C 422.148438 207.230469 421.820312 206.84375 421.699219 206.324219 C 421.636719 206.066406 421.648438 205.832031 421.726562 205.621094 C 421.808594 205.40625 421.964844 205.238281 422.199219 205.113281 C 422.433594 204.984375 422.742188 204.917969 423.121094 204.917969 C 423.503906 204.917969 423.835938 204.984375 424.128906 205.113281 C 424.425781 205.238281 424.660156 205.40625 424.839844 205.621094 C 425.023438 205.832031 425.144531 206.066406 425.203125 206.324219 C 425.265625 206.585938 425.253906 206.820312 425.175781 207.019531 C 425.09375 207.214844 424.957031 207.367188 424.769531 207.476562 C 425.058594 207.59375 425.300781 207.761719 425.5 207.980469 C 425.699219 208.199219 425.832031 208.460938 425.902344 208.761719 C 425.980469 209.085938 425.964844 209.371094 425.855469 209.613281 C 425.75 209.851562 425.570312 210.035156 425.3125 210.167969 C 425.058594 210.296875 424.753906 210.359375 424.398438 210.359375 C 424.039062 210.359375 423.707031 210.296875 423.390625 210.167969 C 423.078125 210.035156 422.8125 209.851562 422.589844 209.613281 C 422.371094 209.371094 422.226562 209.085938 422.148438 208.761719 C 422.078125 208.460938 422.089844 208.199219 422.1875 207.980469 C 422.28125 207.753906 422.445312 207.585938 422.679688 207.476562 Z M 424.269531 206.46875 C 424.214844 206.234375 424.101562 206.050781 423.925781 205.921875 C 423.757812 205.792969 423.554688 205.730469 423.3125 205.730469 C 423.074219 205.730469 422.898438 205.792969 422.789062 205.921875 C 422.679688 206.050781 422.652344 206.234375 422.710938 206.472656 C 422.761719 206.691406 422.871094 206.863281 423.042969 206.992188 C 423.222656 207.121094 423.425781 207.183594 423.652344 207.183594 C 423.882812 207.183594 424.054688 207.121094 424.171875 206.992188 C 424.285156 206.855469 424.320312 206.683594 424.269531 206.46875 Z M 423.824219 207.914062 C 423.554688 207.914062 423.347656 207.984375 423.210938 208.121094 C 423.078125 208.261719 423.039062 208.460938 423.101562 208.71875 C 423.15625 208.957031 423.285156 209.152344 423.480469 209.304688 C 423.679688 209.453125 423.921875 209.527344 424.203125 209.527344 C 424.484375 209.527344 424.683594 209.453125 424.8125 209.296875 C 424.9375 209.144531 424.972656 208.953125 424.917969 208.71875 C 424.859375 208.464844 424.730469 208.269531 424.53125 208.128906 C 424.332031 207.988281 424.09375 207.914062 423.824219 207.914062 Z M 423.824219 207.914062 " fill-opacity="1" fill-rule="nonzero"/><path fill="#ffffff" d="M 426.414062 207.5625 C 426.21875 206.738281 426.214844 206.089844 426.398438 205.621094 C 426.589844 205.152344 427.027344 204.917969 427.71875 204.917969 C 428.40625 204.917969 428.953125 205.152344 429.355469 205.621094 C 429.765625 206.089844 430.066406 206.738281 430.261719 207.5625 C 430.457031 208.394531 430.460938 209.046875 430.269531 209.519531 C 430.085938 209.996094 429.652344 210.230469 428.960938 210.230469 C 428.273438 210.230469 427.722656 209.996094 427.3125 209.519531 C 426.910156 209.046875 426.609375 208.394531 426.414062 207.5625 Z M 429.277344 207.5625 C 429.195312 207.210938 429.101562 206.914062 429 206.675781 C 428.898438 206.429688 428.761719 206.234375 428.589844 206.082031 C 428.417969 205.925781 428.203125 205.851562 427.9375 205.851562 C 427.671875 205.851562 427.484375 205.925781 427.382812 206.082031 C 427.285156 206.234375 427.242188 206.429688 427.253906 206.675781 C 427.265625 206.914062 427.3125 207.210938 427.398438 207.5625 C 427.480469 207.925781 427.574219 208.234375 427.675781 208.480469 C 427.777344 208.726562 427.914062 208.921875 428.085938 209.078125 C 428.257812 209.226562 428.476562 209.296875 428.742188 209.296875 C 429.011719 209.296875 429.195312 209.226562 429.296875 209.078125 C 429.398438 208.921875 429.441406 208.726562 429.429688 208.480469 C 429.414062 208.234375 429.363281 207.925781 429.277344 207.5625 Z M 429.277344 207.5625 " fill-opacity="1" fill-rule="nonzero"/><path fill="#ffffff" d="M 414.898438 183.714844 L 414.683594 182.789062 L 416.402344 182.789062 L 417.625 188.015625 L 416.597656 188.015625 L 415.589844 183.714844 Z M 414.898438 183.714844 " fill-opacity="1" fill-rule="nonzero"/><path fill="#ffffff" d="M 417.980469 185.335938 C 417.785156 184.507812 417.78125 183.859375 417.96875 183.390625 C 418.15625 182.925781 418.59375 182.691406 419.285156 182.691406 C 419.972656 182.691406 420.519531 182.925781 420.921875 183.390625 C 421.332031 183.859375 421.632812 184.507812 421.828125 185.335938 C 422.023438 186.167969 422.027344 186.820312 421.835938 187.292969 C 421.652344 187.765625 421.21875 188 420.527344 188 C 419.839844 188 419.289062 187.765625 418.878906 187.292969 C 418.476562 186.820312 418.175781 186.167969 417.980469 185.335938 Z M 420.84375 185.335938 C 420.761719 184.980469 420.667969 184.683594 420.566406 184.445312 C 420.464844 184.203125 420.328125 184.003906 420.15625 183.851562 C 419.984375 183.699219 419.769531 183.621094 419.503906 183.621094 C 419.238281 183.621094 419.050781 183.699219 418.949219 183.851562 C 418.855469 184.003906 418.808594 184.203125 418.820312 184.445312 C 418.832031 184.683594 418.878906 184.980469 418.964844 185.335938 C 419.046875 185.699219 419.140625 186.003906 419.242188 186.253906 C 419.34375 186.496094 419.480469 186.695312 419.652344 186.847656 C 419.824219 186.996094 420.042969 187.070312 420.3125 187.070312 C 420.578125 187.070312 420.761719 186.996094 420.863281 186.847656 C 420.964844 186.695312 421.011719 186.496094 420.996094 186.253906 C 420.980469 186.003906 420.929688 185.699219 420.84375 185.335938 Z M 420.84375 185.335938 " fill-opacity="1" fill-rule="nonzero"/><path fill="#ffffff" d="M 422.582031 185.335938 C 422.390625 184.507812 422.382812 183.859375 422.570312 183.390625 C 422.757812 182.925781 423.199219 182.691406 423.886719 182.691406 C 424.574219 182.691406 425.121094 182.925781 425.527344 183.390625 C 425.933594 183.859375 426.238281 184.507812 426.429688 185.335938 C 426.625 186.167969 426.628906 186.820312 426.441406 187.292969 C 426.257812 187.765625 425.820312 188 425.132812 188 C 424.441406 188 423.894531 187.765625 423.484375 187.292969 C 423.078125 186.820312 422.777344 186.167969 422.582031 185.335938 Z M 425.445312 185.335938 C 425.363281 184.980469 425.269531 184.683594 425.167969 184.445312 C 425.066406 184.203125 424.929688 184.003906 424.757812 183.851562 C 424.589844 183.699219 424.371094 183.621094 424.105469 183.621094 C 423.839844 183.621094 423.65625 183.699219 423.554688 183.851562 C 423.457031 184.003906 423.414062 184.203125 423.421875 184.445312 C 423.433594 184.683594 423.484375 184.980469 423.566406 185.335938 C 423.652344 185.699219 423.746094 186.003906 423.84375 186.253906 C 423.945312 186.496094 424.082031 186.695312 424.253906 186.847656 C 424.429688 186.996094 424.648438 187.070312 424.914062 187.070312 C 425.179688 187.070312 425.363281 186.996094 425.464844 186.847656 C 425.570312 186.695312 425.613281 186.496094 425.597656 186.253906 C 425.582031 186.003906 425.53125 185.699219 425.445312 185.335938 Z M 425.445312 185.335938 " fill-opacity="1" fill-rule="nonzero"/><path fill="#ffffff" d="M 404.851562 233.5 C 404.410156 233.5 404.089844 233.859375 404.140625 234.304688 C 404.164062 234.519531 404.269531 234.726562 404.4375 234.875 C 404.605469 235.027344 404.816406 235.113281 405.03125 235.113281 L 424.011719 235.113281 C 424.453125 235.113281 424.773438 234.75 424.722656 234.304688 C 424.675781 233.859375 424.277344 233.5 423.832031 233.5 Z M 404.851562 233.5 " fill-opacity="1" fill-rule="nonzero"/><path fill="#ffffff" d="M 405.84375 221.875 C 405.398438 221.875 405.082031 222.238281 405.128906 222.683594 C 405.179688 223.128906 405.578125 223.488281 406.019531 223.488281 L 421.285156 223.488281 C 421.5 223.488281 421.695312 223.40625 421.828125 223.253906 C 421.960938 223.101562 422.023438 222.894531 422 222.683594 C 421.949219 222.238281 421.550781 221.875 421.109375 221.875 Z M 405.84375 221.875 " fill-opacity="1" fill-rule="nonzero"/><path fill="#ffffff" d="M 405.109375 208.175781 C 404.664062 208.175781 404.347656 208.539062 404.394531 208.984375 C 404.417969 209.199219 404.523438 209.402344 404.691406 209.554688 C 404.859375 209.707031 405.074219 209.789062 405.285156 209.789062 L 418.074219 209.789062 C 418.289062 209.789062 418.484375 209.707031 418.617188 209.554688 C 418.75 209.402344 418.8125 209.199219 418.789062 208.984375 C 418.742188 208.539062 418.339844 208.175781 417.898438 208.175781 Z M 405.109375 208.175781 " fill-opacity="1" fill-rule="nonzero"/><path fill="#ffffff" d="M 400.898438 184.929688 C 400.457031 184.929688 400.136719 185.292969 400.183594 185.738281 C 400.207031 185.949219 400.316406 186.15625 400.480469 186.308594 C 400.648438 186.457031 400.863281 186.542969 401.074219 186.542969 L 412.628906 186.542969 C 413.070312 186.542969 413.390625 186.183594 413.339844 185.738281 C 413.292969 185.292969 412.894531 184.929688 412.453125 184.929688 Z M 400.898438 184.929688 " fill-opacity="1" fill-rule="nonzero"/><path fill="#ffffff" d="M 388.34375 156.113281 C 387.15625 155.773438 385.921875 156.464844 385.582031 157.65625 L 382.046875 170.140625 C 381.707031 171.335938 382.394531 172.578125 383.582031 172.917969 C 384.152344 173.082031 384.761719 173.011719 385.28125 172.722656 C 385.796875 172.433594 386.179688 171.949219 386.339844 171.375 L 389.878906 158.890625 C 390.039062 158.316406 389.96875 157.703125 389.683594 157.183594 C 389.394531 156.660156 388.914062 156.277344 388.34375 156.113281 Z M 388.34375 156.113281 " fill-opacity="1" fill-rule="nonzero"/><path fill="#ffffff" d="M 382.167969 177.90625 C 380.984375 177.566406 379.75 178.257812 379.410156 179.449219 L 378.027344 184.328125 C 377.691406 185.523438 378.378906 186.765625 379.5625 187.105469 C 380.132812 187.269531 380.742188 187.199219 381.261719 186.910156 C 381.777344 186.621094 382.160156 186.132812 382.324219 185.5625 L 383.703125 180.683594 C 384.042969 179.488281 383.355469 178.246094 382.167969 177.90625 Z M 382.167969 177.90625 " fill-opacity="1" fill-rule="nonzero"/><g clip-path="url(#ccb3b24857)"><g clip-path="url(#a3ea8eb3f0)"><g clip-path="url(#82187065df)"><path fill="#ffffff" d="M 463.484375 204.660156 L 483.535156 235.675781 C 485.785156 239.160156 487.824219 243.019531 490.214844 246.011719 C 494.988281 251.988281 503.835938 254.992188 510.367188 250.640625 C 513.078125 248.835938 514.855469 245.78125 515.59375 243.265625 C 516.632812 239.695312 516.316406 234.523438 513.953125 230.167969 C 510.328125 223.484375 505.195312 216.625 500.664062 209.609375 L 487.375 189.050781 C 483.191406 195.210938 471.332031 203.097656 463.484375 204.660156 Z M 471.242188 193.984375 C 467.640625 196.554688 464.117188 199.300781 462.585938 202.242188 C 466.261719 202.441406 470.925781 199.90625 475.191406 197.261719 C 479.507812 194.582031 483.570312 191.007812 485.410156 187.820312 C 481.257812 187.679688 475.832031 190.703125 471.242188 193.984375 Z M 443.683594 178.152344 L 445.734375 181.324219 C 446.59375 181.722656 447.660156 181.136719 448.523438 181.519531 L 460.902344 200.667969 C 464.910156 194.996094 475.46875 187.945312 482.375 185.953125 C 483.476562 185.636719 484.40625 185.59375 484.867188 185.175781 L 472.488281 166.027344 C 473.988281 164.59375 472.929688 162.074219 471.097656 160.261719 C 465.527344 167.464844 452.515625 175.582031 443.683594 178.152344 Z M 442.398438 175.648438 C 451.089844 174.101562 464.8125 165.417969 469.460938 157.992188 C 460.6875 159.703125 447.171875 168.15625 442.398438 175.648438 Z M 471.042969 155.800781 C 472.71875 158.90625 474.21875 159.984375 475.066406 162.027344 C 475.773438 163.730469 474.5 164.972656 475.046875 166.371094 C 476 168.828125 478.449219 171.636719 480.210938 174.359375 L 505.648438 213.714844 C 509.078125 219.019531 512.792969 223.921875 515.824219 229.457031 C 519.65625 236.449219 518.863281 245.964844 513.078125 250.71875 C 507.621094 255.210938 502.550781 254.960938 498.371094 253.734375 C 494.839844 252.695312 491.449219 250.855469 488.875 247.542969 C 485.242188 242.882812 482.039062 236.972656 478.546875 231.570312 L 452.804688 191.746094 C 451.28125 189.390625 449.566406 185.59375 447.714844 183.875 C 446.746094 182.972656 445.417969 183.855469 444.199219 182.816406 C 443.160156 181.929688 440.207031 177.71875 439.828125 176.3125 C 439.300781 174.359375 441.703125 171.96875 443.445312 170.308594 C 448.3125 165.679688 454.597656 161.421875 461.113281 158.222656 C 464.535156 156.542969 468.03125 155.140625 471.042969 155.800781 " fill-opacity="1" fill-rule="evenodd"/></g></g></g><g clip-path="url(#ddb2707d88)"><g clip-path="url(#fdf7f37be7)"><g clip-path="url(#c3ede821f4)"><path fill="#353535" d="M 469.460938 157.992188 C 464.8125 165.417969 451.089844 174.101562 442.402344 175.648438 C 447.171875 168.15625 460.691406 159.703125 469.460938 157.992188 " fill-opacity="1" fill-rule="evenodd"/></g></g></g><g clip-path="url(#e08ed3d0bb)"><g clip-path="url(#bfbf8d6af6)"><g clip-path="url(#418c108674)"><path fill="#353535" d="M 465.046875 168.171875 C 459.78125 172.375 453.121094 176.261719 447.835938 178.132812 C 447.246094 179.050781 446.5 179.9375 446.707031 181.027344 C 455.316406 178.40625 466.792969 170.878906 472.789062 164.167969 C 469.894531 162.511719 467.914062 165.886719 465.050781 168.171875 Z M 471.097656 160.261719 C 472.929688 162.074219 473.988281 164.59375 472.488281 166.027344 L 484.867188 185.175781 C 484.40625 185.59375 483.476562 185.636719 482.375 185.953125 C 475.46875 187.945312 464.910156 194.996094 460.902344 200.667969 L 448.523438 181.515625 C 447.664062 181.136719 446.59375 181.722656 445.734375 181.324219 L 443.683594 178.152344 C 452.515625 175.582031 465.53125 167.464844 471.097656 160.265625 " fill-opacity="1" fill-rule="evenodd"/></g></g></g><g clip-path="url(#867339dcd6)"><g clip-path="url(#55b4be4671)"><g clip-path="url(#f1a1281b99)"><path fill="#ffffff" d="M 472.789062 164.167969 C 466.792969 170.878906 455.316406 178.40625 446.707031 181.027344 C 446.5 179.9375 447.246094 179.050781 447.835938 178.132812 C 453.121094 176.261719 459.78125 172.375 465.046875 168.171875 C 467.910156 165.886719 469.894531 162.515625 472.789062 164.167969 " fill-opacity="1" fill-rule="evenodd"/></g></g></g><g clip-path="url(#048d321419)"><g clip-path="url(#8e66a20874)"><g clip-path="url(#b59a56dc66)"><path fill="#fe074c" d="M 485.410156 187.820312 C 483.570312 191.007812 479.507812 194.582031 475.191406 197.261719 C 470.925781 199.90625 466.261719 202.441406 462.585938 202.242188 C 464.117188 199.300781 467.640625 196.554688 471.242188 193.984375 C 475.832031 190.703125 481.257812 187.679688 485.410156 187.820312 " fill-opacity="1" fill-rule="evenodd"/></g></g></g><g clip-path="url(#ed22c2b013)"><g clip-path="url(#cbe2b7a893)"><g clip-path="url(#fa4b820623)"><path fill="#fe074c" d="M 487.375 189.050781 L 500.664062 209.609375 C 505.195312 216.625 510.328125 223.484375 513.953125 230.167969 C 516.316406 234.523438 516.632812 239.695312 515.59375 243.265625 C 514.855469 245.78125 513.078125 248.835938 510.367188 250.640625 C 503.835938 254.992188 494.988281 251.988281 490.214844 246.011719 C 487.824219 243.019531 485.785156 239.160156 483.535156 235.675781 L 463.484375 204.660156 C 471.332031 203.097656 483.191406 195.210938 487.375 189.050781 " fill-opacity="1" fill-rule="evenodd"/></g></g></g><g clip-path="url(#f42e8e0bec)"><g clip-path="url(#62c09b93d6)"><g clip-path="url(#db2a1da15d)"><path fill="#fe074c" d="M 122.78125 129.550781 C 124.6875 128.914062 125.722656 126.832031 125.085938 124.929688 L 122.277344 116.558594 C 121.640625 114.652344 119.558594 113.617188 117.65625 114.257812 L 114.0625 115.460938 C 112.15625 116.097656 109.640625 115.285156 108.472656 113.652344 L 102.90625 107.234375 C 101.445312 105.859375 100.980469 103.261719 101.875 101.464844 L 103.566406 98.066406 C 104.460938 96.269531 103.722656 94.066406 101.925781 93.171875 L 94.023438 89.234375 C 92.222656 88.339844 90.019531 89.078125 89.125 90.875 L 87.433594 94.273438 C 86.539062 96.074219 84.183594 97.265625 82.207031 96.925781 L 73.730469 96.355469 C 71.722656 96.40625 69.558594 94.890625 68.921875 92.984375 L 67.714844 89.390625 C 67.078125 87.488281 64.996094 86.449219 63.09375 87.089844 L 54.722656 89.894531 C 52.816406 90.535156 51.78125 92.613281 52.417969 94.519531 L 53.625 98.113281 C 54.261719 100.015625 53.449219 102.53125 51.816406 103.703125 L 45.398438 109.265625 C 44.023438 110.730469 41.425781 111.191406 39.628906 110.296875 L 36.230469 108.605469 C 34.433594 107.710938 32.230469 108.449219 31.335938 110.246094 L 27.398438 118.152344 C 26.503906 119.949219 27.242188 122.152344 29.042969 123.046875 L 32.441406 124.738281 C 34.238281 125.632812 35.429688 127.984375 35.09375 129.964844 L 34.523438 138.441406 C 34.574219 140.449219 33.054688 142.613281 31.152344 143.25 L 27.558594 144.457031 C 25.652344 145.09375 24.617188 147.175781 25.257812 149.078125 L 28.0625 157.453125 C 28.699219 159.355469 30.78125 160.390625 32.683594 159.753906 L 36.277344 158.546875 C 38.183594 157.910156 40.699219 158.722656 41.867188 160.355469 L 47.433594 166.773438 C 48.898438 168.148438 49.363281 170.746094 48.464844 172.542969 L 46.773438 175.945312 C 45.878906 177.742188 46.617188 179.945312 48.414062 180.839844 L 56.316406 184.773438 C 58.113281 185.671875 60.316406 184.929688 61.214844 183.132812 L 62.90625 179.734375 C 63.800781 177.9375 66.152344 176.742188 68.132812 177.082031 L 76.609375 177.652344 C 78.617188 177.601562 80.78125 179.117188 81.417969 181.023438 L 82.625 184.617188 C 83.261719 186.523438 85.34375 187.558594 87.246094 186.921875 L 95.617188 184.113281 C 97.523438 183.476562 98.558594 181.394531 97.917969 179.492188 L 96.714844 175.894531 C 96.074219 173.992188 96.890625 171.476562 98.519531 170.308594 L 104.941406 164.742188 C 106.316406 163.28125 108.910156 162.8125 110.710938 163.710938 L 114.109375 165.402344 C 115.90625 166.296875 118.109375 165.558594 119.003906 163.761719 L 122.941406 155.859375 C 123.835938 154.0625 123.097656 151.855469 121.296875 150.960938 L 117.902344 149.269531 C 116.101562 148.375 114.910156 146.019531 115.246094 144.042969 L 115.816406 135.566406 C 115.765625 133.558594 117.285156 131.394531 119.1875 130.757812 Z M 81.859375 156.964844 C 70.835938 160.65625 58.90625 154.71875 55.210938 143.695312 C 51.515625 132.671875 57.457031 120.742188 68.476562 117.046875 C 79.5 113.351562 91.433594 119.292969 95.128906 130.316406 C 98.824219 141.335938 92.882812 153.269531 81.859375 156.964844 Z M 81.859375 156.964844 " fill-opacity="1" fill-rule="nonzero"/></g></g></g><g clip-path="url(#a176ffdcc7)"><g clip-path="url(#a48f182af8)"><g clip-path="url(#b90d9c7cd1)"><path fill="#2d8ef1" d="M 242.109375 72.550781 C 244.234375 70.929688 244.644531 67.867188 243.023438 65.742188 L 235.898438 56.398438 C 234.277344 54.273438 231.214844 53.863281 229.089844 55.480469 L 225.078125 58.542969 C 222.953125 60.164062 219.4375 60.214844 217.261719 58.664062 L 207.5 52.964844 C 205.066406 51.855469 203.367188 48.785156 203.722656 46.136719 L 204.394531 41.132812 C 204.75 38.484375 202.878906 36.023438 200.226562 35.667969 L 188.585938 34.101562 C 185.933594 33.746094 183.476562 35.621094 183.121094 38.269531 L 182.445312 43.273438 C 182.089844 45.925781 179.636719 48.4375 177 48.859375 L 166.078125 51.777344 C 163.570312 52.699219 160.195312 51.71875 158.574219 49.59375 L 155.511719 45.582031 C 153.890625 43.457031 150.828125 43.042969 148.703125 44.664062 L 139.359375 51.789062 C 137.234375 53.410156 136.824219 56.476562 138.445312 58.601562 L 141.503906 62.613281 C 143.125 64.738281 143.179688 68.253906 141.625 70.429688 L 135.925781 80.1875 C 134.820312 82.625 131.746094 84.324219 129.101562 83.964844 L 124.09375 83.292969 C 121.445312 82.933594 118.984375 84.808594 118.628906 87.460938 L 117.0625 99.101562 C 116.707031 101.753906 118.582031 104.210938 121.230469 104.566406 L 126.238281 105.238281 C 128.886719 105.597656 131.398438 108.046875 131.824219 110.6875 L 134.738281 121.609375 C 135.664062 124.117188 134.679688 127.492188 132.554688 129.113281 L 128.546875 132.171875 C 126.421875 133.792969 126.007812 136.859375 127.628906 138.984375 L 134.753906 148.328125 C 136.375 150.453125 139.441406 150.863281 141.566406 149.242188 L 145.578125 146.183594 C 147.703125 144.5625 151.21875 144.507812 153.390625 146.0625 L 163.15625 151.761719 C 165.589844 152.867188 167.289062 155.941406 166.933594 158.585938 L 166.257812 163.59375 C 165.902344 166.242188 167.777344 168.703125 170.425781 169.058594 L 182.066406 170.625 C 184.71875 170.984375 187.175781 169.105469 187.53125 166.457031 L 188.207031 161.449219 C 188.5625 158.800781 191.015625 156.289062 193.652344 155.867188 L 204.574219 152.953125 C 207.082031 152.027344 210.457031 153.007812 212.078125 155.136719 L 215.140625 159.148438 C 216.761719 161.269531 219.824219 161.683594 221.949219 160.0625 L 231.292969 152.9375 C 233.417969 151.316406 233.828125 148.25 232.207031 146.125 L 229.148438 142.113281 C 227.527344 139.988281 227.472656 136.472656 229.027344 134.296875 L 234.726562 124.539062 C 235.832031 122.105469 238.902344 120.402344 241.550781 120.761719 L 246.558594 121.433594 C 249.207031 121.789062 251.667969 119.914062 252.023438 117.265625 L 253.589844 105.621094 C 253.945312 102.976562 252.070312 100.515625 249.421875 100.15625 L 244.417969 99.484375 C 241.765625 99.128906 239.253906 96.675781 238.832031 94.039062 L 235.914062 83.117188 C 234.988281 80.609375 235.972656 77.230469 238.097656 75.609375 Z M 202.3125 124.636719 C 190.015625 134.019531 172.4375 131.652344 163.054688 119.351562 C 153.671875 107.050781 156.035156 89.472656 168.335938 80.089844 C 180.636719 70.710938 198.214844 73.074219 207.597656 85.375 C 216.980469 97.675781 214.613281 115.253906 202.3125 124.636719 Z M 202.3125 124.636719 " fill-opacity="1" fill-rule="nonzero"/></g></g></g><g clip-path="url(#1e235f6be3)"><g clip-path="url(#3883871772)"><g clip-path="url(#daf98a8e99)"><path fill="#ffce01" d="M 125.71875 28.933594 C 127.082031 28.03125 127.457031 26.183594 126.558594 24.820312 L 122.605469 18.839844 C 121.703125 17.476562 119.855469 17.097656 118.492188 18 L 115.925781 19.695312 C 114.5625 20.597656 112.417969 20.484375 111.15625 19.449219 L 105.449219 15.574219 C 104.011719 14.800781 103.101562 12.859375 103.429688 11.261719 L 104.046875 8.238281 C 104.371094 6.640625 103.332031 5.066406 101.734375 4.738281 L 94.707031 3.304688 C 93.105469 2.980469 91.53125 4.019531 91.207031 5.617188 L 90.589844 8.640625 C 90.261719 10.238281 88.664062 11.667969 87.039062 11.816406 L 80.269531 13.140625 C 78.703125 13.601562 76.6875 12.863281 75.789062 11.503906 L 74.089844 8.933594 C 73.191406 7.570312 71.339844 7.195312 69.980469 8.09375 L 63.996094 12.046875 C 62.632812 12.949219 62.257812 14.796875 63.15625 16.160156 L 64.855469 18.726562 C 65.753906 20.089844 65.640625 22.234375 64.605469 23.492188 L 60.730469 29.203125 C 59.957031 30.640625 58.015625 31.546875 56.417969 31.222656 L 53.398438 30.605469 C 51.796875 30.277344 50.222656 31.320312 49.898438 32.917969 L 48.460938 39.945312 C 48.136719 41.542969 49.175781 43.117188 50.777344 43.445312 L 53.796875 44.0625 C 55.394531 44.386719 56.824219 45.984375 56.972656 47.609375 L 58.300781 54.382812 C 58.757812 55.945312 58.023438 57.964844 56.660156 58.863281 L 54.089844 60.558594 C 52.730469 61.460938 52.351562 63.308594 53.253906 64.671875 L 57.207031 70.65625 C 58.105469 72.015625 59.957031 72.394531 61.316406 71.496094 L 63.886719 69.796875 C 65.246094 68.898438 67.390625 69.007812 68.652344 70.046875 L 74.363281 73.917969 C 75.800781 74.691406 76.710938 76.632812 76.382812 78.230469 L 75.765625 81.253906 C 75.4375 82.851562 76.480469 84.425781 78.078125 84.753906 L 85.105469 86.1875 C 86.703125 86.515625 88.277344 85.472656 88.605469 83.875 L 89.222656 80.855469 C 89.546875 79.253906 91.144531 77.824219 92.769531 77.679688 L 99.539062 76.351562 C 101.105469 75.894531 103.121094 76.628906 104.023438 77.992188 L 105.71875 80.5625 C 106.621094 81.921875 108.46875 82.300781 109.832031 81.402344 L 115.816406 77.445312 C 117.175781 76.546875 117.554688 74.695312 116.652344 73.335938 L 114.953125 70.765625 C 114.054688 69.40625 114.167969 67.261719 115.203125 66 L 119.078125 60.289062 C 119.851562 58.855469 121.792969 57.945312 123.390625 58.273438 L 126.414062 58.886719 C 128.011719 59.214844 129.585938 58.171875 129.914062 56.574219 L 131.347656 49.546875 C 131.671875 47.949219 130.632812 46.375 129.035156 46.046875 L 126.011719 45.429688 C 124.414062 45.105469 122.984375 43.507812 122.835938 41.882812 L 121.511719 35.113281 C 121.050781 33.546875 121.789062 31.53125 123.152344 30.628906 Z M 99.332031 59.011719 C 91.453125 64.21875 80.84375 62.054688 75.636719 54.175781 C 70.429688 46.296875 72.597656 35.6875 80.476562 30.480469 C 88.355469 25.273438 98.964844 27.4375 104.171875 35.320312 C 109.378906 43.199219 107.210938 53.804688 99.332031 59.011719 Z M 99.332031 59.011719 " fill-opacity="1" fill-rule="nonzero"/></g></g></g></svg>