<svg xmlns="http://www.w3.org/2000/svg" xmlns:xlink="http://www.w3.org/1999/xlink" width="500" zoomAndPan="magnify" viewBox="0 0 375 374.999991" height="500" preserveAspectRatio="xMidYMid meet" version="1.0"><defs><clipPath id="dedf8d2a8e"><path d="M 18 2 L 270 2 L 270 254 L 18 254 Z M 18 2 " clip-rule="nonzero"/></clipPath><clipPath id="c14ff9f33d"><path d="M 29.441406 -6.078125 L 278.425781 13.480469 L 258.867188 262.464844 L 9.882812 242.90625 Z M 29.441406 -6.078125 " clip-rule="nonzero"/></clipPath><clipPath id="7baa905a83"><path d="M 29.441406 -6.078125 L 278.425781 13.480469 L 258.867188 262.464844 L 9.882812 242.90625 Z M 29.441406 -6.078125 " clip-rule="nonzero"/></clipPath><clipPath id="c53a9b3c2c"><path d="M 181 175 L 359 175 L 359 374 L 181 374 Z M 181 175 " clip-rule="nonzero"/></clipPath><clipPath id="67b99a35a8"><path d="M 331.558594 381.070312 L 174.183594 196.863281 L 207.722656 168.207031 L 365.097656 352.417969 Z M 331.558594 381.070312 " clip-rule="nonzero"/></clipPath><clipPath id="709bf16e18"><path d="M 320.351562 367.957031 L 185.460938 210.066406 C 179.273438 202.820312 180.128906 191.933594 187.371094 185.746094 L 194.679688 179.5 C 201.925781 173.3125 212.8125 174.167969 219 181.410156 L 353.890625 339.300781 C 360.082031 346.542969 359.226562 357.433594 351.980469 363.621094 L 344.671875 369.867188 C 337.429688 376.054688 326.539062 375.199219 320.351562 367.957031 Z M 320.351562 367.957031 " clip-rule="nonzero"/></clipPath></defs><g clip-path="url(#dedf8d2a8e)"><g clip-path="url(#c14ff9f33d)"><g clip-path="url(#7baa905a83)"><path fill="#ffce01" d="M 257.898438 156.625 C 262.78125 157.007812 267.085938 153.328125 267.472656 148.445312 L 269.15625 126.984375 C 269.539062 122.101562 265.859375 117.792969 260.976562 117.410156 L 251.761719 116.6875 C 246.878906 116.304688 242.015625 112.078125 240.945312 107.300781 L 234.578125 87.589844 C 232.609375 83.105469 234.042969 76.835938 237.761719 73.65625 L 244.800781 67.648438 C 248.519531 64.464844 248.96875 58.816406 245.785156 55.09375 L 231.804688 38.726562 C 228.621094 35.003906 222.972656 34.558594 219.25 37.742188 L 212.214844 43.75 C 208.488281 46.933594 202.070312 47.367188 197.953125 44.71875 L 179.476562 35.359375 C 174.925781 33.554688 171.515625 28.085938 171.898438 23.207031 L 172.621094 13.988281 C 173.003906 9.109375 169.324219 4.800781 164.445312 4.417969 L 142.980469 2.730469 C 138.101562 2.347656 133.792969 6.027344 133.410156 10.910156 L 132.683594 20.125 C 132.300781 25.007812 128.074219 29.875 123.300781 30.945312 L 103.589844 37.304688 C 99.105469 39.277344 92.835938 37.84375 89.660156 34.121094 L 83.648438 27.085938 C 80.464844 23.363281 74.816406 22.917969 71.09375 26.097656 L 54.726562 40.082031 C 51.003906 43.261719 50.558594 48.910156 53.742188 52.636719 L 59.753906 59.671875 C 62.9375 63.394531 63.371094 69.8125 60.726562 73.933594 L 51.363281 92.40625 C 49.558594 96.960938 44.089844 100.371094 39.210938 99.988281 L 29.996094 99.261719 C 25.113281 98.878906 20.808594 102.558594 20.421875 107.441406 L 18.738281 128.90625 C 18.355469 133.789062 22.035156 138.097656 26.914062 138.480469 L 36.128906 139.203125 C 41.011719 139.585938 45.878906 143.808594 46.949219 148.589844 L 53.316406 168.300781 C 55.289062 172.78125 53.855469 179.054688 50.132812 182.234375 L 43.089844 188.246094 C 39.367188 191.425781 38.925781 197.074219 42.105469 200.796875 L 56.085938 217.164062 C 59.265625 220.886719 64.914062 221.328125 68.640625 218.148438 L 75.679688 212.136719 C 79.402344 208.957031 85.820312 208.519531 89.9375 211.167969 L 108.410156 220.53125 C 112.964844 222.335938 116.375 227.800781 115.988281 232.683594 L 115.265625 241.898438 C 114.882812 246.78125 118.5625 251.089844 123.445312 251.472656 L 144.90625 253.160156 C 149.789062 253.542969 154.097656 249.863281 154.480469 244.980469 L 155.203125 235.761719 C 155.585938 230.878906 159.808594 226.015625 164.589844 224.941406 L 184.296875 218.582031 C 188.777344 216.609375 195.050781 218.039062 198.230469 221.761719 L 204.246094 228.800781 C 207.425781 232.527344 213.078125 232.96875 216.796875 229.789062 L 233.164062 215.804688 C 236.882812 212.625 237.332031 206.976562 234.148438 203.253906 L 228.140625 196.214844 C 224.957031 192.492188 224.523438 186.074219 227.167969 181.953125 L 236.53125 163.480469 C 238.332031 158.925781 243.800781 155.515625 248.683594 155.902344 Z M 139.921875 179.109375 C 111.664062 176.890625 90.554688 152.183594 92.777344 123.925781 C 94.996094 95.664062 119.703125 74.554688 147.960938 76.777344 C 176.21875 78.996094 197.332031 103.703125 195.113281 131.964844 C 192.890625 160.222656 168.179688 181.332031 139.921875 179.109375 Z M 139.921875 179.109375 " fill-opacity="1" fill-rule="nonzero"/></g></g></g><g clip-path="url(#c53a9b3c2c)"><g clip-path="url(#67b99a35a8)"><g clip-path="url(#709bf16e18)"><path fill="#ffce01" d="M 331.558594 381.070312 L 174.292969 196.992188 L 207.835938 168.339844 L 365.097656 352.417969 Z M 331.558594 381.070312 " fill-opacity="1" fill-rule="nonzero"/></g></g></g></svg>